<mxfile host="Electron" modified="2025-03-24T08:27:33.918Z" agent="Mozilla/5.0 (Windows NT 10.0; Win64; x64) AppleWebKit/537.36 (KHTML, like Gecko) draw.io/23.1.5 Chrome/120.0.6099.109 Electron/28.1.0 Safari/537.36" etag="Y3DpbNs42Bd2ZctLYwgl" version="23.1.5" type="device">
  <diagram name="Page-1" id="WGwugYmZtKNsKfTP5KeL">
    <mxGraphModel dx="880" dy="532" grid="1" gridSize="10" guides="1" tooltips="1" connect="1" arrows="1" fold="1" page="1" pageScale="1" pageWidth="850" pageHeight="1100" math="0" shadow="0">
      <root>
        <mxCell id="0" />
        <mxCell id="1" parent="0" />
        <mxCell id="GvKZLdbF-9AuFxfO0sd9-1" value="Client" style="rounded=0;whiteSpace=wrap;html=1;" vertex="1" parent="1">
          <mxGeometry x="160" y="250" width="120" height="60" as="geometry" />
        </mxCell>
        <mxCell id="GvKZLdbF-9AuFxfO0sd9-2" value="Web Application&lt;br&gt;(or other interface)" style="ellipse;whiteSpace=wrap;html=1;aspect=fixed;" vertex="1" parent="1">
          <mxGeometry x="480" y="220" width="120" height="120" as="geometry" />
        </mxCell>
        <mxCell id="GvKZLdbF-9AuFxfO0sd9-3" value="" style="endArrow=classic;html=1;rounded=0;exitX=1;exitY=1;exitDx=0;exitDy=0;entryX=0.058;entryY=0.742;entryDx=0;entryDy=0;entryPerimeter=0;" edge="1" parent="1" source="GvKZLdbF-9AuFxfO0sd9-1" target="GvKZLdbF-9AuFxfO0sd9-2">
          <mxGeometry width="50" height="50" relative="1" as="geometry">
            <mxPoint x="287" y="310" as="sourcePoint" />
            <mxPoint x="477" y="310" as="targetPoint" />
          </mxGeometry>
        </mxCell>
        <mxCell id="GvKZLdbF-9AuFxfO0sd9-4" value="Authenticaation credentails&lt;br&gt;and URL" style="edgeLabel;html=1;align=center;verticalAlign=middle;resizable=0;points=[];" vertex="1" connectable="0" parent="GvKZLdbF-9AuFxfO0sd9-3">
          <mxGeometry x="-0.01" y="-2" relative="1" as="geometry">
            <mxPoint y="-1" as="offset" />
          </mxGeometry>
        </mxCell>
        <mxCell id="GvKZLdbF-9AuFxfO0sd9-5" value="User Auth" style="ellipse;whiteSpace=wrap;html=1;aspect=fixed;" vertex="1" parent="1">
          <mxGeometry x="480" y="470" width="120" height="120" as="geometry" />
        </mxCell>
        <mxCell id="GvKZLdbF-9AuFxfO0sd9-6" value="" style="endArrow=classic;html=1;rounded=0;entryX=1;entryY=0;entryDx=0;entryDy=0;exitX=0.075;exitY=0.242;exitDx=0;exitDy=0;exitPerimeter=0;" edge="1" parent="1" source="GvKZLdbF-9AuFxfO0sd9-2" target="GvKZLdbF-9AuFxfO0sd9-1">
          <mxGeometry width="50" height="50" relative="1" as="geometry">
            <mxPoint x="400" y="400" as="sourcePoint" />
            <mxPoint x="450" y="350" as="targetPoint" />
          </mxGeometry>
        </mxCell>
        <mxCell id="GvKZLdbF-9AuFxfO0sd9-7" value="Result" style="edgeLabel;html=1;align=center;verticalAlign=middle;resizable=0;points=[];" vertex="1" connectable="0" parent="GvKZLdbF-9AuFxfO0sd9-6">
          <mxGeometry x="0.0239" relative="1" as="geometry">
            <mxPoint as="offset" />
          </mxGeometry>
        </mxCell>
        <mxCell id="GvKZLdbF-9AuFxfO0sd9-8" value="" style="endArrow=classic;html=1;rounded=0;exitX=0;exitY=1;exitDx=0;exitDy=0;entryX=0;entryY=0;entryDx=0;entryDy=0;" edge="1" parent="1" source="GvKZLdbF-9AuFxfO0sd9-2" target="GvKZLdbF-9AuFxfO0sd9-5">
          <mxGeometry width="50" height="50" relative="1" as="geometry">
            <mxPoint x="400" y="400" as="sourcePoint" />
            <mxPoint x="450" y="350" as="targetPoint" />
          </mxGeometry>
        </mxCell>
        <mxCell id="GvKZLdbF-9AuFxfO0sd9-10" value="Credentails" style="edgeLabel;html=1;align=center;verticalAlign=middle;resizable=0;points=[];" vertex="1" connectable="0" parent="GvKZLdbF-9AuFxfO0sd9-8">
          <mxGeometry x="0.0242" y="1" relative="1" as="geometry">
            <mxPoint as="offset" />
          </mxGeometry>
        </mxCell>
        <mxCell id="GvKZLdbF-9AuFxfO0sd9-9" value="" style="endArrow=classic;html=1;rounded=0;entryX=1;entryY=1;entryDx=0;entryDy=0;exitX=1;exitY=0;exitDx=0;exitDy=0;" edge="1" parent="1" source="GvKZLdbF-9AuFxfO0sd9-5" target="GvKZLdbF-9AuFxfO0sd9-2">
          <mxGeometry width="50" height="50" relative="1" as="geometry">
            <mxPoint x="400" y="400" as="sourcePoint" />
            <mxPoint x="450" y="350" as="targetPoint" />
          </mxGeometry>
        </mxCell>
        <mxCell id="GvKZLdbF-9AuFxfO0sd9-11" value="Result" style="edgeLabel;html=1;align=center;verticalAlign=middle;resizable=0;points=[];" vertex="1" connectable="0" parent="GvKZLdbF-9AuFxfO0sd9-9">
          <mxGeometry x="-0.0363" y="-1" relative="1" as="geometry">
            <mxPoint as="offset" />
          </mxGeometry>
        </mxCell>
        <mxCell id="GvKZLdbF-9AuFxfO0sd9-12" value="User DB" style="shape=partialRectangle;whiteSpace=wrap;html=1;bottom=0;top=0;fillColor=none;" vertex="1" parent="1">
          <mxGeometry x="200" y="500" width="120" height="60" as="geometry" />
        </mxCell>
        <mxCell id="GvKZLdbF-9AuFxfO0sd9-13" value="" style="endArrow=classic;html=1;rounded=0;entryX=1;entryY=0;entryDx=0;entryDy=0;exitX=0.05;exitY=0.258;exitDx=0;exitDy=0;exitPerimeter=0;" edge="1" parent="1" source="GvKZLdbF-9AuFxfO0sd9-5" target="GvKZLdbF-9AuFxfO0sd9-12">
          <mxGeometry width="50" height="50" relative="1" as="geometry">
            <mxPoint x="440" y="520" as="sourcePoint" />
            <mxPoint x="450" y="450" as="targetPoint" />
          </mxGeometry>
        </mxCell>
        <mxCell id="GvKZLdbF-9AuFxfO0sd9-15" value="Store" style="edgeLabel;html=1;align=center;verticalAlign=middle;resizable=0;points=[];" vertex="1" connectable="0" parent="GvKZLdbF-9AuFxfO0sd9-13">
          <mxGeometry x="-0.0243" y="3" relative="1" as="geometry">
            <mxPoint as="offset" />
          </mxGeometry>
        </mxCell>
        <mxCell id="GvKZLdbF-9AuFxfO0sd9-14" value="" style="endArrow=classic;html=1;rounded=0;exitX=1;exitY=1;exitDx=0;exitDy=0;entryX=0.075;entryY=0.758;entryDx=0;entryDy=0;entryPerimeter=0;" edge="1" parent="1" source="GvKZLdbF-9AuFxfO0sd9-12" target="GvKZLdbF-9AuFxfO0sd9-5">
          <mxGeometry width="50" height="50" relative="1" as="geometry">
            <mxPoint x="400" y="500" as="sourcePoint" />
            <mxPoint x="450" y="450" as="targetPoint" />
          </mxGeometry>
        </mxCell>
        <mxCell id="GvKZLdbF-9AuFxfO0sd9-16" value="Access" style="edgeLabel;html=1;align=center;verticalAlign=middle;resizable=0;points=[];" vertex="1" connectable="0" parent="GvKZLdbF-9AuFxfO0sd9-14">
          <mxGeometry x="-0.006" y="1" relative="1" as="geometry">
            <mxPoint as="offset" />
          </mxGeometry>
        </mxCell>
        <mxCell id="GvKZLdbF-9AuFxfO0sd9-18" value="URL Detection Service" style="ellipse;whiteSpace=wrap;html=1;aspect=fixed;" vertex="1" parent="1">
          <mxGeometry x="800" y="220" width="120" height="120" as="geometry" />
        </mxCell>
        <mxCell id="GvKZLdbF-9AuFxfO0sd9-19" value="" style="endArrow=classic;html=1;rounded=0;exitX=1;exitY=0;exitDx=0;exitDy=0;entryX=0;entryY=0;entryDx=0;entryDy=0;" edge="1" parent="1" source="GvKZLdbF-9AuFxfO0sd9-2" target="GvKZLdbF-9AuFxfO0sd9-18">
          <mxGeometry width="50" height="50" relative="1" as="geometry">
            <mxPoint x="560" y="400" as="sourcePoint" />
            <mxPoint x="770" y="260" as="targetPoint" />
          </mxGeometry>
        </mxCell>
        <mxCell id="GvKZLdbF-9AuFxfO0sd9-21" value="URL" style="edgeLabel;html=1;align=center;verticalAlign=middle;resizable=0;points=[];" vertex="1" connectable="0" parent="GvKZLdbF-9AuFxfO0sd9-19">
          <mxGeometry relative="1" as="geometry">
            <mxPoint as="offset" />
          </mxGeometry>
        </mxCell>
        <mxCell id="GvKZLdbF-9AuFxfO0sd9-20" value="" style="endArrow=classic;html=1;rounded=0;entryX=1;entryY=0.5;entryDx=0;entryDy=0;exitX=0;exitY=0.5;exitDx=0;exitDy=0;" edge="1" parent="1" source="GvKZLdbF-9AuFxfO0sd9-18" target="GvKZLdbF-9AuFxfO0sd9-2">
          <mxGeometry width="50" height="50" relative="1" as="geometry">
            <mxPoint x="560" y="400" as="sourcePoint" />
            <mxPoint x="610" y="350" as="targetPoint" />
          </mxGeometry>
        </mxCell>
        <mxCell id="GvKZLdbF-9AuFxfO0sd9-22" value="Result" style="edgeLabel;html=1;align=center;verticalAlign=middle;resizable=0;points=[];" vertex="1" connectable="0" parent="GvKZLdbF-9AuFxfO0sd9-20">
          <mxGeometry x="-0.01" relative="1" as="geometry">
            <mxPoint as="offset" />
          </mxGeometry>
        </mxCell>
        <mxCell id="GvKZLdbF-9AuFxfO0sd9-23" value="&lt;font style=&quot;font-size: 30px;&quot;&gt;DFD 1&lt;/font&gt;" style="text;html=1;align=center;verticalAlign=middle;whiteSpace=wrap;rounded=0;" vertex="1" parent="1">
          <mxGeometry x="440" y="80" width="200" height="80" as="geometry" />
        </mxCell>
      </root>
    </mxGraphModel>
  </diagram>
</mxfile>
